<svg xmlns="http://www.w3.org/2000/svg" viewBox="0 0 64 64" role="img" aria-labelledby="title">
  <title id="title">TidyRoo favicon</title>
  <defs>
    <linearGradient id="g" x1="0" y1="0" x2="1" y2="1">
      <stop offset="0" stop-color="#2E7D32" />
      <stop offset="1" stop-color="#1B5E20" />
    </linearGradient>
  </defs>
  <rect width="64" height="64" rx="14" fill="#F4E9DB" />
  <!-- Mini roo swoosh, simplified for small sizes -->
  <path d="M12 38c0-10 9-19 20-19 6 0 11 2 15 6l-4 3c-3-3-7-5-11-5-9 0-16 6-16 15 0 7 5 12 13 13 3 0 6-1 8-2l3 3c-4 2-9 4-15 4C18 56 12 48 12 38z" fill="url(#g)" />
  <path d="M44 23l2-4 5 3-4 4z" fill="#1B5E20" />
  
</svg>
